<svg xmlns="http://www.w3.org/2000/svg" viewBox="0 0 317.97 284.3"><title>Phoenix-RTOS</title><g fill="#ee3739"><path d="M303.64 101.85H275.5c-10.35 0-18.44-8.72-18.44-19.07V32.07C257.06 14.33 242.3 0 224.56 0h-36.9a14.28 14.28 0 1 0 0 28.57h36.9c1.93 0 3.93 1.57 3.93 3.5v50.71a47.27 47.27 0 0 0 13.51 33.1A47.27 47.27 0 0 0 228.49 149v50.7a4.36 4.36 0 0 1-3.93 4h-36.9a14.28 14.28 0 1 0 0 28.57h36.9a32.84 32.84 0 0 0 32.5-32.57V149a18.34 18.34 0 0 1 18.44-18.57h28.14a14.28 14.28 0 1 0 0-28.57ZM89.38 32.07c0-1.93 2.11-3.5 4-3.5h36.9a14.28 14.28 0 1 0 0-28.57H93.42C75.68 0 60.81 14.33 60.81 32.07v50.71c0 10.35-8 19.07-18.33 19.07H14.33a14.28 14.28 0 1 0 0 28.57h28.15A18.25 18.25 0 0 1 60.81 149v50.7a32.93 32.93 0 0 0 32.61 32.57h36.9a14.28 14.28 0 1 0 0-28.57h-36.9a4.46 4.46 0 0 1-4-4V149a47.27 47.27 0 0 0-13.51-33.11 47.27 47.27 0 0 0 13.47-33.11Z" style="fill:#ea5b22;fill-opacity:1"/><path d="M32.24 44.72H14.33a14.28 14.28 0 1 0 0 28.57h17.91ZM32.24 159H14.33a14.28 14.28 0 1 0 0 28.57h17.91ZM285.63 44.72h18a14.28 14.28 0 1 1 0 28.57h-18ZM285.63 187.56h18a14.28 14.28 0 1 0 0-28.57h-18Z" style="fill:#ea5b22;fill-opacity:1"/></g><g style="fill:#fff;fill-opacity:1"><path d="M123 277.63h-7a4.58 4.58 0 0 0 1.25 3.24 5.45 5.45 0 0 0 3.38.83 51 51 0 0 0 5.43-.38l.29 2a15.8 15.8 0 0 1-6.13.92q-4.06 0-5.76-1.84t-1.7-6.32q0-4.51 1.67-6.32T120 268q3.56 0 5.17 1.3a4.71 4.71 0 0 1 1.62 3.91q-.02 4.42-3.79 4.42m-7-2.38h6.16q1.52 0 1.52-2.06a2.44 2.44 0 0 0-.81-2 4.74 4.74 0 0 0-2.75-.59 4.2 4.2 0 0 0-3.18 1q-.87.92-.94 3.65M132.83 268.39l.19 2.38q3.65-2.79 6.86-2.79a4.17 4.17 0 0 1 3.13 1.1 4.4 4.4 0 0 1 1.06 3.19v11.62H141v-10.74a3.45 3.45 0 0 0-.43-2 1.84 1.84 0 0 0-1.54-.56 5.9 5.9 0 0 0-2.41.54 36 36 0 0 0-3.3 1.78v11h-3.08v-15.52ZM149.13 261.79h1.46a.79.79 0 0 1 .89.89v1.78a.8.8 0 0 1-.89.92h-1.46a.8.8 0 0 1-.89-.92v-1.78a.79.79 0 0 1 .89-.89m2.25 22.1h-3v-15.5h3ZM162.53 277h-.6l-4.19 6.86h-3.34l5.08-8-4.7-7.49h3.3l3.81 6.25h.67l3.78-6.25h3.3l-4.64 7.51 5.08 8h-3.33ZM181.06 277h-9.65v-2.35h9.65ZM201.32 283.89h-3.4l-1.92-6.83a2.74 2.74 0 0 0-2.76-2.19h-4.51v9h-3.14V262q2.7-.29 7.65-.29 4 0 5.6 1.37t1.63 5a6.9 6.9 0 0 1-.94 4 4.24 4.24 0 0 1-3.09 1.62v.16a4 4 0 0 1 2.76 3.17Zm-12.54-11.75h4.45a4.9 4.9 0 0 0 3.22-.84 4.14 4.14 0 0 0 .87-3.06 4 4 0 0 0-.87-3 4.88 4.88 0 0 0-3.22-.79h-4.45ZM220.49 264.8h-7v19.08h-3.21V264.8h-6.89V262h17ZM231.55 261.57q4.89 0 6.83 2.48t1.94 8.89-1.94 8.89-6.83 2.48q-4.86 0-6.79-2.48t-1.94-8.89q0-6.41 1.94-8.89t6.79-2.48m4.25 4.67q-1.17-1.84-4.25-1.84t-4.24 1.84-1.16 6.7 1.16 6.7 4.24 1.84 4.25-1.84 1.17-6.7-1.17-6.71ZM252.4 274.84l-4.4-1.24a5.55 5.55 0 0 1-3.35-2.14 7.3 7.3 0 0 1-1-4.08 9.6 9.6 0 0 1 .4-3 3.22 3.22 0 0 1 1.38-1.76 5.9 5.9 0 0 1 2.19-.79 22 22 0 0 1 3.24-.19 28.2 28.2 0 0 1 6.6.67l-.19 2.32q-4.6-.16-6.29-.16a7.3 7.3 0 0 0-3.3.49q-.83.49-.83 2.56a3.47 3.47 0 0 0 .59 2.29 4.06 4.06 0 0 0 2 1l4.36 1.19a5.76 5.76 0 0 1 3.44 2.16 7.2 7.2 0 0 1 1 4.06q0 3.62-1.65 4.83t-5.81 1.21a37.5 37.5 0 0 1-6.89-.63l.22-2.35q5 .16 6.73.16a6.37 6.37 0 0 0 3.32-.64q.84-.6.84-2.6a3.6 3.6 0 0 0-.57-2.33 4 4 0 0 0-2.03-1.03M59.28 283.89V262q2.7-.29 7.62-.29 4.09 0 5.63 1.46t1.54 5.46-1.48 5.49-5.32 1.46a42 42 0 0 1-4.83-.29v8.6Zm3.17-11h4.38a4.6 4.6 0 0 0 3.18-.89q.86-.86.86-3.33t-.87-3.39a4.5 4.5 0 0 0-3.18-.86h-4.38ZM80.59 261.66v6a20 20 0 0 1-.22 3Q84 268 87.13 268a4.18 4.18 0 0 1 3.11 1.1 4.36 4.36 0 0 1 1.08 3.19v11.62h-3.08v-10.76a3.45 3.45 0 0 0-.43-2 1.84 1.84 0 0 0-1.54-.56 6.2 6.2 0 0 0-2.46.54 29 29 0 0 0-3.25 1.75v11h-3.08v-22.22ZM96.6 269.85q1.68-1.87 5.71-1.87t5.71 1.87 1.68 6.32-1.7 6.29q-1.68 1.84-5.71 1.84t-5.71-1.84-1.68-6.29 1.7-6.32m9 1.91q-.89-1.17-3.3-1.17t-3.3 1.17-.89 4.41.89 4.38q.89 1.17 3.3 1.17t3.3-1.17.89-4.38-.87-4.41Z" style="fill-opacity:1;fill:#fff"/></g></svg>